<?xml version="1.0" encoding="utf-8"?>
<!-- Generator: Adobe Illustrator 15.0.0, SVG Export Plug-In . SVG Version: 6.00 Build 0)  -->
<!DOCTYPE svg PUBLIC "-//W3C//DTD SVG 1.1//EN" "http://www.w3.org/Graphics/SVG/1.1/DTD/svg11.dtd">
<svg version="1.1" xmlns="http://www.w3.org/2000/svg" xmlns:xlink="http://www.w3.org/1999/xlink" x="0px" y="0px"
	 width="437.998px" height="624px" viewBox="0 0 437.998 624" enable-background="new 0 0 437.998 624" xml:space="preserve">
<g id="レイヤー_2">
	
		<linearGradient id="SVGID_1_" gradientUnits="userSpaceOnUse" x1="227.3586" y1="651.166" x2="227.3586" y2="28.8445" gradientTransform="matrix(1 0 0 -1 -8.3599 648.0547)">
		<stop  offset="0" style="stop-color:#BEFFFF"/>
		<stop  offset="0.411" style="stop-color:#A7AEFF"/>
		<stop  offset="1" style="stop-color:#BB76FF"/>
	</linearGradient>
	<rect x="0" fill="url(#SVGID_1_)" width="437.998" height="624"/>
</g>
<g id="レイヤー_1">
	<g>
		<path fill="#FFFFFF" d="M171.019,353.012c-22.528,0-40.856-18.328-40.856-40.856c0-22.527,18.328-40.855,40.856-40.855v1
			c-21.977,0-39.856,17.879-39.856,39.855s17.879,39.856,39.856,39.856c21.977,0,39.855-17.88,39.855-39.856h1
			C211.874,334.684,193.547,353.012,171.019,353.012z"/>
		<g>
			<polyline fill="#FFFFFF" points="305.357,313.931 283.886,313.931 283.886,292.46 			"/>
			<polyline fill="#FFFFFF" points="283.886,292.46 283.886,270.989 305.357,270.989 			"/>
		</g>
		<polyline fill="#FFFFFF" points="205.722,312.035 170.726,312.035 170.726,277.039 		"/>
		<circle fill="#FFFFFF" cx="227.836" cy="292.46" r="21.471"/>
		<path fill="#FFFFFF" d="M275.631,313.931c-11.858,0-21.471-9.612-21.471-21.471c0-11.859,9.612-21.472,21.471-21.472"/>
		<g>
			<path fill="#FFFFFF" d="M217.024,333.338c0.326,0.522,0.605,0.851,0.835,1.062c0.752,0.671,1.816,1.047,2.976,1.047
				c2.044,0,3.337-1.128,3.337-2.896c0-1.505-0.884-2.306-3.272-2.976c-2.535-0.703-3.5-1.605-3.5-3.224
				c0-1.817,1.374-3.012,3.518-3.012c0.704,0,1.358,0.147,1.946,0.441c0.491,0.245,0.932,0.588,1.374,0.998l-0.327,0.325
				c-0.359-0.44-0.769-0.784-1.243-1.03c-0.524-0.278-1.112-0.409-1.768-0.409c-1.929,0-3.14,1.03-3.14,2.685
				c0,1.489,0.753,2.159,3.37,2.929c2.485,0.737,3.403,1.604,3.403,3.272c0,1.948-1.489,3.241-3.731,3.241
				c-1.275,0-2.372-0.393-3.19-1.129c-0.344-0.297-0.639-0.654-0.9-1.065L217.024,333.338z"/>
			<path fill="#FFFFFF" d="M237.181,332.913c-0.246,0.425-0.523,0.817-0.785,1.127c-1.031,1.212-2.257,1.785-3.909,1.785
				c-3.471,0-5.581-2.405-5.581-6.334c0-3.698,2.128-6.184,5.301-6.184c1.588,0,2.797,0.425,3.715,1.324
				c0.441,0.425,0.801,0.95,1.146,1.571l-0.424,0.244c-0.264-0.637-0.589-1.162-1.016-1.588c-0.818-0.816-1.964-1.209-3.437-1.209
				c-2.962,0-4.91,2.275-4.91,5.841c0,3.764,1.946,5.989,5.205,5.989c1.505,0,2.618-0.491,3.633-1.635
				c0.245-0.296,0.474-0.654,0.751-1.146L237.181,332.913z"/>
			<path fill="#FFFFFF" d="M249.076,334.434c0,0.409,0,0.818,0.049,1.228h-0.476c0.049-0.409,0.049-0.818,0.049-1.228v-4.974h-8.393
				v4.974c0,0.409,0,0.818,0.047,1.228h-0.475c0.049-0.409,0.049-0.818,0.049-1.228v-9.736c0-0.41,0-0.818-0.049-1.228h0.475
				c-0.047,0.41-0.047,0.817-0.047,1.228v4.417h8.393v-4.417c0-0.41,0-0.818-0.049-1.228h0.476c-0.049,0.41-0.049,0.817-0.049,1.228
				V334.434z"/>
			<path fill="#FFFFFF" d="M260.201,334.383c0.263,0.425,0.54,0.867,0.866,1.276h-0.67c-0.163-0.459-0.393-0.867-0.654-1.276
				l-2.88-4.531h-3.55v4.582c0,0.409,0,0.818,0.048,1.228h-0.458c0.033-0.409,0.033-0.818,0.033-1.228v-9.785
				c0-0.77-0.018-0.966-0.05-1.229c0.359,0.033,0.688,0.05,1.262,0.05h2.436c2.374,0,3.683,1.079,3.683,3.059
				c0,1.751-0.933,2.912-3.012,3.239L260.201,334.383z M256.257,329.524c2.374,0,3.634-1.032,3.634-2.979
				c0-1.8-1.179-2.733-3.37-2.733h-3.208v5.712H256.257z"/>
			<path fill="#FFFFFF" d="M267.498,323.47c3.731,0,5.826,2.128,5.826,5.94c0,3.894-2.16,6.251-5.695,6.251h-2.685
				c-0.588,0-0.915,0.016-1.26,0.049c0.033-0.344,0.049-0.672,0.049-1.229v-9.833c0-0.574-0.016-0.884-0.049-1.229
				c0.345,0.033,0.67,0.05,1.26,0.05H267.498L267.498,323.47z M267.63,335.316c3.307,0,5.318-2.227,5.318-5.907
				c0-3.599-1.965-5.597-5.467-5.597h-3.37v11.504H267.63L267.63,335.316z"/>
			<path fill="#FFFFFF" d="M285.791,323.47c-0.033,0.343-0.048,0.671-0.048,1.243v6.644c0,2.717-1.769,4.401-4.615,4.401
				c-2.849,0-4.647-1.702-4.647-4.401v-6.644c0-0.572-0.017-0.9-0.047-1.243h0.472c-0.031,0.343-0.049,0.671-0.049,1.243v6.628
				c0,2.52,1.622,4.075,4.273,4.075c2.648,0,4.235-1.539,4.235-4.075v-6.628c0-0.572-0.014-0.9-0.046-1.243H285.791z"/>
			<path fill="#FFFFFF" d="M295.92,335.316c0.409,0,0.817,0,1.226-0.049v0.442c-0.408-0.05-0.816-0.05-1.226-0.05h-5.104
				c-0.41,0-0.852,0-1.262,0.05c0.049-0.409,0.049-0.818,0.049-1.229v-9.752c0-0.407,0-0.819-0.049-1.228h0.475
				c-0.047,0.408-0.047,0.82-0.047,1.228v10.587H295.92L295.92,335.316z"/>
			<path fill="#FFFFFF" d="M305.588,335.316c0.411,0,0.818,0,1.228-0.049v0.442c-0.409-0.05-0.816-0.05-1.228-0.05h-4.646
				c-0.41,0-0.851,0-1.261,0.05c0.05-0.409,0.05-0.818,0.05-1.229v-9.817c0-0.409,0-0.817-0.05-1.242
				c0.41,0.048,0.851,0.048,1.261,0.048h4.403c0.407,0,0.818,0,1.228-0.048v0.439c-0.409-0.049-0.82-0.049-1.228-0.049h-5.238v5.58
				h4.68c0.409,0,0.818,0,1.227-0.048v0.441c-0.408-0.049-0.817-0.049-1.227-0.049h-4.68v5.581h5.481V335.316z"/>
		</g>
	</g>
</g>
</svg>
